<?xml version="1.0" encoding="UTF-8"?>
<svg version="1.1" viewBox="0 0 2048 778" width="1280" height="1280" xmlns="http://www.w3.org/2000/svg">
<path transform="translate(0)" d="m0 0h2048v778h-2048z" fill="#FCFCFC"/>
<path transform="translate(138,66)" d="m0 0h61l16 2 13 4 10 6 7 9 4 11 1 6v13l-3 11-4 8-9 10-12 7-13 4-12 2h-19v45l-1 1h-40v-138z" fill="#24272B"/>
<path transform="translate(1488,60)" d="m0 0h40v58h3v-2h2l2-4 8-6 9-3h14l10 4 8 7 5 11 2 11v68l-1 1h-38l-1-63-3-6-4-3h-7l-5 3-3 6-1 63h-40z" fill="#24272B"/>
<path transform="translate(681,103)" d="m0 0h23l12 3 14 7 9 8 7 12 3 9 1 6v13l-3 14-6 12-7 8-9 6-12 5-9 2h-23l-15-4-10-5-9-8-7-11-4-13-1-14 2-13 5-13 7-9 9-7 14-6z" fill="#24272B"/>
<path transform="translate(514,106)" d="m0 0h45l16 63h1l12-50 3-12 1-1h39l-12 36-12 33-10 29-7 18-8 14-7 8-11 7-9 3-6 1h-9l-17-3-3-2v-27l8 1h14l6-3 4-6 2-5-1-7-20-49-13-32-6-14z" fill="#26292D"/>
<path transform="translate(262,106)" d="m0 0h40l1 1 1 65 4 5 9 1 5-2 3-4 1-6 1-60h40v99h-40v-9l-7 4-7 5-9 3-10 1-11-2-10-6-6-8-4-11-1-6z" fill="#24272B"/>
<path transform="translate(765,106)" d="m0 0h40l1 62 3 9 11 1 5-3 3-5 1-12 1-52h40v98l-1 1h-39l-1-5-1-4-8 6-10 5-10 2-11-1-12-6-7-8-4-10-1-5z" fill="#24272B"/>
<path transform="translate(1649,103)" d="m0 0h19l13 4 10 6 8 9 5 10 3 15v21l-1 1h-61l4 7 7 4 4 1h18l16-4h3v23l-2 3-15 4-6 1h-25l-15-4-10-6-8-7-6-10-3-9-1-5v-19l4-15 6-11 9-9 16-8z" fill="#24272B"/>
<path transform="translate(1847,103)" d="m0 0h19l13 4 10 6 7 8 6 12 2 8 1 27-5 1h-57l4 7 7 4 4 1h17l14-3 6-1v19l-2 7-15 4-6 1h-25l-15-4-12-7-7-7-7-14-2-8v-21l3-12 6-12 10-10 8-5 11-4z" fill="#24272B"/>
<path transform="translate(1360,103)" d="m0 0h19l13 4 11 7 8 10 5 13 1 6v25l-3 1-58 1 4 6 10 5h18l17-4 3 1-1 24-11 4-11 2h-25l-13-3-13-7-9-9-6-12-2-8v-23l4-14 6-10 10-10 14-7z" fill="#24272B"/>
<path transform="translate(433,77)" d="m0 0h3v29h21v23l-1 7h-20l1 35 4 6 2 1h7l7-1v27l-7 3-13 2-14-1-11-4-10-9-5-10-1-5-1-43-14-1-1-1v-29l15-1 1-18 21-6z" fill="#24272B"/>
<path transform="translate(1078,77)" d="m0 0h3v29h21v29l-1 1h-20l1 35 4 6 2 1h7l7-2v28l-7 3-14 2-13-1-11-4-10-9-4-7-2-9v-43h-13l-3-2v-27l1-1 14-1 1-18 18-5z" fill="#24272B"/>
<path transform="translate(1222,77)" d="m0 0h3v29h21v29l-1 1h-19v34l4 7 2 1h7l7-2v28l-7 3-12 2-15-1-11-4-10-9-5-11-1-6-1-41-13-1-1-1v-29h15v-19l18-5z" fill="#24272B"/>
<path transform="translate(0)" d="m0 0h2048v2l-27 1h-2021z" fill="#212024"/>
<path transform="translate(1260,60)" d="m0 0h40v145h-40z" fill="#24272B"/>
<path transform="translate(1791,102)" d="m0 0 4 1v36l-20 1-7 4-4 7-1 4-1 50h-40l-1-1v-97l1-1h40v14h2l6-9 8-6 5-2z" fill="#24272B"/>
<path transform="translate(958,102)" d="m0 0h5l1 1v35l-1 1-19 1-8 5-3 5-1 4-1 34v16l-1 1h-40v-99h41l-1 15h3l2-5 7-8 10-5z" fill="#24272B"/>
<path transform="translate(1116,106)" d="m0 0h40v99h-40l-1-1v-97z" fill="#24272B"/>
<path transform="translate(1129,60)" d="m0 0h14l8 4 6 7 1 3v11l-3 6-6 5-8 3h-11l-10-5-5-6-2-5v-8l3-7 7-6z" fill="#24272B"/>
<path transform="translate(689,132)" d="m0 0h7l7 3 4 6 1 3v21l-3 8-6 5-10 1-6-3-5-8-1-4v-18l3-8 6-5z" fill="#FDFDFD"/>
<path transform="translate(178,96)" d="m0 0h16l8 4 4 8v10l-3 6-5 4-4 1h-16z" fill="#FDFDFD"/>
<path transform="translate(1654,126)" d="m0 0h9l5 4 3 9v6l-3 1h-22l-1-1 1-8 4-8z" fill="#FDFDFD"/>
<path transform="translate(1364,126)" d="m0 0h10l5 5 2 5v9l-2 1h-22l-2-3 3-10z" fill="#FDFDFD"/>
<path transform="translate(1852,126)" d="m0 0h9l5 5 2 4v10l-2 1h-22l-1-1 1-9 4-7z" fill="#FDFDFD"/>
<path transform="translate(1968)" d="m0 0h80v2l-27 1h-52z" fill="#1F1D21"/>
<path transform="translate(138,66)" d="m0 0h61l5 1v1l-64 1-2-1z" fill="#212125"/>
<path transform="translate(0)" d="m0 0h42v3h-42z" fill="#201E22"/>
<path transform="translate(1968)" d="m0 0h32v2l-3 1h-28z" fill="#212024"/>
<path transform="translate(330,139)" d="m0 0h3l2 9-2 2-5-1v-7z" fill="#1F1C20"/>
<path transform="translate(834,136)" d="m0 0 3 2 1 9h-3l-1-2-2 1 1-9z" fill="#1F1C20"/>
<path transform="translate(1984)" d="m0 0h16v2l-3 1h-11l-2-1z" fill="#201F23"/>
</svg>
